<svg xmlns="http://www.w3.org/2000/svg" viewBox="0 0 128 128" role="img" aria-label="Ghost butler">
  <defs>
    <radialGradient id="g" cx="50%" cy="40%" r="55%">
      <stop offset="0%" stop-color="#ffffff"/>
      <stop offset="70%" stop-color="#f3eef8"/>
      <stop offset="100%" stop-color="#d8cce8"/>
    </radialGradient>
  </defs>
  <!-- body -->
  <path fill="url(#g)" d="M64 14c-22 0-38 16-38 40v42c0 4 3 6 6 4l8-5 8 5c3 2 6 0 6-3v-8c0-2 2-3 4-3s4 1 4 3v8c0 3 3 5 6 3l8-5 8 5c3 2 6 0 6-4V54c0-24-16-40-38-40z"/>
  <!-- tuxedo -->
  <path fill="#1a1a1a" d="M48 58c4 18 8 28 16 34 8-6 12-16 16-34l-10 6c-2 8-4 12-6 14-2-2-4-6-6-14z"/>
  <path fill="#fff8ea" d="M58 58h12l-2 14h-8z"/>
  <circle cx="64" cy="72" r="2.2" fill="#f0c14b"/>
  <circle cx="64" cy="80" r="2.2" fill="#f0c14b"/>
  <circle cx="64" cy="88" r="2.2" fill="#f0c14b"/>
  <!-- bow tie -->
  <path fill="#1a1a1a" d="M64 56l-10-4 10 8 10-8z"/>
  <rect x="61" y="54" width="6" height="6" rx="1" fill="#2d0f45"/>
  <!-- pocket square -->
  <path fill="#9b59b6" d="M78 70l4-3 2 5z"/>
  <!-- chain -->
  <path fill="none" stroke="#f0c14b" stroke-width="1.5" d="M72 78c6 2 10 6 8 12"/>
  <circle cx="80" cy="92" r="3" fill="none" stroke="#f0c14b" stroke-width="1.5"/>
  <!-- face -->
  <ellipse cx="54" cy="44" rx="5" ry="6" fill="#2a1b16"/>
  <ellipse cx="74" cy="44" rx="5" ry="6" fill="#2a1b16"/>
  <circle cx="55.5" cy="43" r="1.6" fill="#fff"/>
  <circle cx="75.5" cy="43" r="1.6" fill="#fff"/>
  <path fill="none" stroke="#2a1b16" stroke-width="2" stroke-linecap="round" d="M58 54c4 4 8 4 12 0"/>
  <!-- blush -->
  <ellipse cx="48" cy="50" rx="4" ry="2.5" fill="#e85d9a" opacity=".35"/>
  <ellipse cx="80" cy="50" rx="4" ry="2.5" fill="#e85d9a" opacity=".35"/>
</svg>
